<svg width="18" height="18" viewBox="0 0 18 18" fill="none" xmlns="http://www.w3.org/2000/svg">
<path fill-rule="evenodd" clip-rule="evenodd" d="M6.15802 8.18679C6.15802 7.89671 6.39317 7.66156 6.68325 7.66156H11.9356C12.2256 7.66156 12.4608 7.89671 12.4608 8.18679C12.4608 8.47687 12.2256 8.71202 11.9356 8.71202H6.68325C6.39317 8.71202 6.15802 8.47687 6.15802 8.18679Z" fill="black"/>
<path fill-rule="evenodd" clip-rule="evenodd" d="M6.15802 10.2877C6.15802 9.9976 6.39317 9.76245 6.68325 9.76245H11.9356C12.2256 9.76245 12.4608 9.9976 12.4608 10.2877C12.4608 10.5778 12.2256 10.8129 11.9356 10.8129H6.68325C6.39317 10.8129 6.15802 10.5778 6.15802 10.2877Z" fill="black"/>
<path fill-rule="evenodd" clip-rule="evenodd" d="M3.31431 4.2926C3.51131 4.0956 3.7785 3.98492 4.0571 3.98492H14.5617C14.8403 3.98492 15.1075 4.0956 15.3045 4.2926C15.5015 4.4896 15.6122 4.75679 15.6122 5.03539V12.9138C15.6122 13.3317 15.4462 13.7325 15.1507 14.028C14.8552 14.3235 14.4544 14.4895 14.0365 14.4895H2.48141C2.19133 14.4895 1.95618 14.2544 1.95618 13.9643C1.95618 13.6742 2.19133 13.4391 2.48141 13.4391C2.62071 13.4391 2.7543 13.3837 2.8528 13.2852C2.9513 13.1867 3.00664 13.0531 3.00664 12.9138V5.03539C3.00664 4.75679 3.11731 4.4896 3.31431 4.2926ZM3.96698 13.4391H14.0365C14.1758 13.4391 14.3094 13.3837 14.4079 13.2852C14.5064 13.1867 14.5617 13.0531 14.5617 12.9138V5.03539L4.0571 5.03539V12.9138C4.0571 13.0945 4.02608 13.2719 3.96698 13.4391Z" fill="black"/>
<path fill-rule="evenodd" clip-rule="evenodd" d="M1.43093 6.08588C1.72101 6.08588 1.95616 6.32103 1.95616 6.61111V12.9139C1.95616 13.0532 2.0115 13.1868 2.11 13.2853C2.2085 13.3838 2.34209 13.4391 2.48139 13.4391C2.77147 13.4391 3.00662 13.6743 3.00662 13.9643C3.00662 14.2544 2.77147 14.4896 2.48139 14.4896C2.06349 14.4896 1.66271 14.3236 1.36721 14.0281C1.07171 13.7326 0.905701 13.3318 0.905701 12.9139V6.61111C0.905701 6.32103 1.14085 6.08588 1.43093 6.08588Z" fill="black"/>
</svg>
