<svg width="26" height="26" viewBox="0 0 26 26" fill="none" xmlns="http://www.w3.org/2000/svg">
<path fill-rule="evenodd" clip-rule="evenodd" d="M6.90625 10.5625C6.90625 10.1138 7.27002 9.75 7.71875 9.75H18.2812C18.73 9.75 19.0938 10.1138 19.0938 10.5625C19.0938 11.0112 18.73 11.375 18.2812 11.375H7.71875C7.27002 11.375 6.90625 11.0112 6.90625 10.5625Z" fill="black"/>
<path fill-rule="evenodd" clip-rule="evenodd" d="M6.90625 13.8125C6.90625 13.3638 7.27002 13 7.71875 13H18.2812C18.73 13 19.0938 13.3638 19.0938 13.8125C19.0938 14.2612 18.73 14.625 18.2812 14.625H7.71875C7.27002 14.625 6.90625 14.2612 6.90625 13.8125Z" fill="black"/>
<path fill-rule="evenodd" clip-rule="evenodd" d="M2.91345 4.53845C3.2182 4.23371 3.63152 4.0625 4.0625 4.0625H21.9375C22.3685 4.0625 22.7818 4.2337 23.0865 4.53845C23.3913 4.8432 23.5625 5.25652 23.5625 5.6875V21.125C23.5625 21.4066 23.4167 21.6681 23.1772 21.8162C22.9376 21.9642 22.6385 21.9777 22.3866 21.8517L19.5 20.4084L16.6134 21.8517C16.3846 21.9661 16.1154 21.9661 15.8866 21.8517L13 20.4084L10.1134 21.8517C9.88462 21.9661 9.61538 21.9661 9.38664 21.8517L6.5 20.4084L3.61336 21.8517C3.3615 21.9777 3.06238 21.9642 2.82284 21.8162C2.58331 21.6681 2.4375 21.4066 2.4375 21.125V5.6875C2.4375 5.25652 2.60871 4.8432 2.91345 4.53845ZM21.9375 5.6875L4.0625 5.6875L4.0625 19.8103L6.13664 18.7733C6.36538 18.6589 6.63462 18.6589 6.86336 18.7733L9.75 20.2166L12.6366 18.7733C12.8654 18.6589 13.1346 18.6589 13.3634 18.7733L16.25 20.2166L19.1366 18.7733C19.3654 18.6589 19.6346 18.6589 19.8634 18.7733L21.9375 19.8103V5.6875Z" fill="black"/>
</svg>
