<svg width="26" height="26" viewBox="0 0 26 26" fill="none" xmlns="http://www.w3.org/2000/svg">
<path fill-rule="evenodd" clip-rule="evenodd" d="M13 4.0625C8.06395 4.0625 4.0625 8.06395 4.0625 13C4.0625 17.936 8.06395 21.9375 13 21.9375C17.936 21.9375 21.9375 17.936 21.9375 13C21.9375 8.06395 17.936 4.0625 13 4.0625ZM2.4375 13C2.4375 7.16649 7.16649 2.4375 13 2.4375C18.8335 2.4375 23.5625 7.16649 23.5625 13C23.5625 18.8335 18.8335 23.5625 13 23.5625C7.16649 23.5625 2.4375 18.8335 2.4375 13Z" fill="black"/>
<path fill-rule="evenodd" clip-rule="evenodd" d="M12.1875 13C12.1875 12.5513 12.5513 12.1875 13 12.1875H18.6875C19.1362 12.1875 19.5 12.5513 19.5 13C19.5 13.4487 19.1362 13.8125 18.6875 13.8125H13C12.5513 13.8125 12.1875 13.4487 12.1875 13Z" fill="black"/>
</svg>
