<svg width="26" height="26" viewBox="0 0 26 26" fill="none" xmlns="http://www.w3.org/2000/svg">
<path fill-rule="evenodd" clip-rule="evenodd" d="M2.15219 6.55173C2.57235 6.39417 3.04068 6.60705 3.19824 7.02721L7.31248 17.9985L11.4267 7.02721C11.5456 6.71009 11.8488 6.5 12.1875 6.5H23.5625C24.0112 6.5 24.375 6.86377 24.375 7.3125V9.75C24.375 10.1987 24.0112 10.5625 23.5625 10.5625C23.1137 10.5625 22.75 10.1987 22.75 9.75V8.125H12.7505L8.07324 20.5978C7.95432 20.9149 7.65116 21.125 7.31248 21.125C6.97379 21.125 6.67063 20.9149 6.55171 20.5978L1.67671 7.59779C1.51915 7.17763 1.73203 6.70929 2.15219 6.55173Z" fill="black"/>
</svg>
