<svg width="20" height="20" viewBox="0 0 20 20" fill="none" xmlns="http://www.w3.org/2000/svg">
<path d="M14.9067 9.08053C16.0692 8.9172 16.9642 7.92053 16.9667 6.71303C16.9667 5.52303 16.0992 4.53637 14.9617 4.3497" stroke="#838A91" stroke-width="1.375" stroke-linecap="round" stroke-linejoin="round"/>
<path d="M16.4399 11.8752C17.5657 12.0435 18.3515 12.4377 18.3515 13.2502C18.3515 13.8093 17.9815 14.1727 17.3832 14.401" stroke="#838A91" stroke-width="1.375" stroke-linecap="round" stroke-linejoin="round"/>
<path fill-rule="evenodd" clip-rule="evenodd" d="M9.90504 12.2198C7.22671 12.2198 4.93921 12.6256 4.93921 14.2465C4.93921 15.8665 7.21254 16.284 9.90504 16.284C12.5834 16.284 14.87 15.8823 14.87 14.2606C14.87 12.639 12.5975 12.2198 9.90504 12.2198Z" stroke="#838A91" stroke-width="1.375" stroke-linecap="round" stroke-linejoin="round"/>
<path fill-rule="evenodd" clip-rule="evenodd" d="M9.90561 9.9065C11.6631 9.9065 13.0881 8.48234 13.0881 6.724C13.0881 4.9665 11.6631 3.5415 9.90561 3.5415C8.14811 3.5415 6.72311 4.9665 6.72311 6.724C6.71644 8.47567 8.13061 9.90067 9.88227 9.9065H9.90561Z" stroke="#838A91" stroke-width="1.375" stroke-linecap="round" stroke-linejoin="round"/>
<path d="M4.90283 9.08053C3.7395 8.9172 2.84533 7.92053 2.84283 6.71303C2.84283 5.52303 3.71033 4.53637 4.84783 4.3497" stroke="#838A91" stroke-width="1.375" stroke-linecap="round" stroke-linejoin="round"/>
<path d="M3.36943 11.8752C2.2436 12.0435 1.45776 12.4377 1.45776 13.2502C1.45776 13.8093 1.82776 14.1727 2.4261 14.401" stroke="#838A91" stroke-width="1.375" stroke-linecap="round" stroke-linejoin="round"/>
</svg>
