<svg width="20" height="20" viewBox="0 0 20 20" fill="none" xmlns="http://www.w3.org/2000/svg">
<path fill-rule="evenodd" clip-rule="evenodd" d="M10 1.59999C7.77222 1.59999 5.63566 2.48499 4.06036 4.06029C2.48506 5.63559 1.60006 7.77216 1.60006 9.99997V18.3999H10C11.1031 18.3999 12.1954 18.1827 13.2146 17.7605C14.2337 17.3384 15.1597 16.7197 15.9397 15.9396C16.7197 15.1596 17.3385 14.2336 17.7606 13.2145C18.1827 12.1954 18.4 11.1031 18.4 9.99997C18.4 8.89687 18.1827 7.80457 17.7606 6.78544C17.3385 5.7663 16.7197 4.8403 15.9397 4.06029C15.1597 3.28028 14.2337 2.66154 13.2146 2.2394C12.1954 1.81727 11.1031 1.59999 10 1.59999ZM10 19.9999H1.57442C1.36821 20.0018 1.16364 19.9628 0.972569 19.8852C0.779565 19.8067 0.60423 19.6904 0.456912 19.5431C0.309595 19.3958 0.193278 19.2204 0.114826 19.0274C0.0371579 18.8364 -0.0018399 18.6318 6.66784e-05 18.4256V9.99997C6.66784e-05 7.34781 1.05363 4.80428 2.92899 2.92892C4.80435 1.05356 7.34788 0 10 0C11.3132 0 12.6136 0.258657 13.8269 0.761202C15.0401 1.26375 16.1425 2.00034 17.0711 2.92892C17.9997 3.8575 18.7363 4.95989 19.2388 6.17314C19.7413 7.3864 20 8.68675 20 9.99997C20 11.3132 19.7413 12.6135 19.2388 13.8268C18.7363 15.04 17.9997 16.1424 17.0711 17.071C16.1425 17.9996 15.0401 18.7362 13.8269 19.2387C12.6136 19.7413 11.3132 19.9999 10 19.9999Z" fill="#9197B3"/>
</svg>
