<svg width="26" height="26" viewBox="0 0 26 26" fill="none" xmlns="http://www.w3.org/2000/svg">
<path fill-rule="evenodd" clip-rule="evenodd" d="M2.4375 5.6875C2.4375 4.79004 3.16504 4.0625 4.0625 4.0625H21.9375C22.835 4.0625 23.5625 4.79004 23.5625 5.6875V20.3125C23.5625 21.21 22.835 21.9375 21.9375 21.9375H4.0625C3.16504 21.9375 2.4375 21.21 2.4375 20.3125V5.6875ZM21.9375 5.6875H4.0625V20.3125H21.9375V5.6875Z" fill="#595959"/>
<path fill-rule="evenodd" clip-rule="evenodd" d="M2.4375 8.125C2.4375 7.67627 2.80127 7.3125 3.25 7.3125H22.75C23.1987 7.3125 23.5625 7.67627 23.5625 8.125C23.5625 8.57373 23.1987 8.9375 22.75 8.9375H3.25C2.80127 8.9375 2.4375 8.57373 2.4375 8.125Z" fill="#595959"/>
<path fill-rule="evenodd" clip-rule="evenodd" d="M8.9375 10.5625C9.38623 10.5625 9.75 10.9263 9.75 11.375C9.75 12.237 10.0924 13.0636 10.7019 13.6731C11.3114 14.2826 12.138 14.625 13 14.625C13.862 14.625 14.6886 14.2826 15.2981 13.6731C15.9076 13.0636 16.25 12.237 16.25 11.375C16.25 10.9263 16.6138 10.5625 17.0625 10.5625C17.5112 10.5625 17.875 10.9263 17.875 11.375C17.875 12.6679 17.3614 13.9079 16.4471 14.8221C15.5329 15.7364 14.2929 16.25 13 16.25C11.7071 16.25 10.4671 15.7364 9.55285 14.8221C8.63861 13.9079 8.125 12.6679 8.125 11.375C8.125 10.9263 8.48877 10.5625 8.9375 10.5625Z" fill="#595959"/>
</svg>
