<svg width="20" height="20" viewBox="0 0 20 20" fill="none" xmlns="http://www.w3.org/2000/svg">
<path fill-rule="evenodd" clip-rule="evenodd" d="M3.81656 2.62906C4.03926 2.40636 4.34131 2.28125 4.65625 2.28125H11.7812C11.9387 2.28125 12.0897 2.34381 12.2011 2.45516L16.3573 6.61141C16.4687 6.72275 16.5312 6.87378 16.5312 7.03125V10C16.5312 10.3279 16.2654 10.5938 15.9375 10.5938C15.6096 10.5938 15.3438 10.3279 15.3438 10V7.27719L11.5353 3.46875L4.65625 3.46875L4.65625 10C4.65625 10.3279 4.39042 10.5938 4.0625 10.5938C3.73458 10.5938 3.46875 10.3279 3.46875 10V3.46875C3.46875 3.15381 3.59386 2.85176 3.81656 2.62906Z" fill="white"/>
<path fill-rule="evenodd" clip-rule="evenodd" d="M11.7812 2.28125C12.1092 2.28125 12.375 2.54708 12.375 2.875V6.4375H15.9375C16.2654 6.4375 16.5312 6.70333 16.5312 7.03125C16.5312 7.35917 16.2654 7.625 15.9375 7.625H11.7812C11.4533 7.625 11.1875 7.35917 11.1875 7.03125V2.875C11.1875 2.54708 11.4533 2.28125 11.7812 2.28125Z" fill="white"/>
<path fill-rule="evenodd" clip-rule="evenodd" d="M3.46875 12.9688C3.46875 12.6408 3.73458 12.375 4.0625 12.375H5.25C5.72242 12.375 6.17548 12.5627 6.50953 12.8967C6.84358 13.2308 7.03125 13.6838 7.03125 14.1562C7.03125 14.6287 6.84358 15.0817 6.50953 15.4158C6.17548 15.7498 5.72242 15.9375 5.25 15.9375H4.65625V16.5312C4.65625 16.8592 4.39042 17.125 4.0625 17.125C3.73458 17.125 3.46875 16.8592 3.46875 16.5312V12.9688ZM4.65625 14.75H5.25C5.40747 14.75 5.55849 14.6874 5.66984 14.5761C5.78119 14.4647 5.84375 14.3137 5.84375 14.1562C5.84375 13.9988 5.78119 13.8478 5.66984 13.7364C5.55849 13.6251 5.40747 13.5625 5.25 13.5625H4.65625V14.75Z" fill="white"/>
<path fill-rule="evenodd" clip-rule="evenodd" d="M13.8594 12.9688C13.8594 12.6408 14.1252 12.375 14.4531 12.375H16.5312C16.8592 12.375 17.125 12.6408 17.125 12.9688C17.125 13.2967 16.8592 13.5625 16.5312 13.5625H15.0469V16.5312C15.0469 16.8592 14.781 17.125 14.4531 17.125C14.1252 17.125 13.8594 16.8592 13.8594 16.5312V12.9688Z" fill="white"/>
<path fill-rule="evenodd" clip-rule="evenodd" d="M13.8594 15.0469C13.8594 14.719 14.1252 14.4531 14.4531 14.4531H16.2344C16.5623 14.4531 16.8281 14.719 16.8281 15.0469C16.8281 15.3748 16.5623 15.6406 16.2344 15.6406H14.4531C14.1252 15.6406 13.8594 15.3748 13.8594 15.0469Z" fill="black"/>
<path fill-rule="evenodd" clip-rule="evenodd" d="M8.36719 12.9688C8.36719 12.6408 8.63302 12.375 8.96094 12.375H10C10.6299 12.375 11.234 12.6252 11.6794 13.0706C12.1248 13.516 12.375 14.1201 12.375 14.75C12.375 15.3799 12.1248 15.984 11.6794 16.4294C11.234 16.8748 10.6299 17.125 10 17.125H8.96094C8.63302 17.125 8.36719 16.8592 8.36719 16.5312V12.9688ZM9.55469 13.5625V15.9375H10C10.3149 15.9375 10.617 15.8124 10.8397 15.5897C11.0624 15.367 11.1875 15.0649 11.1875 14.75C11.1875 14.4351 11.0624 14.133 10.8397 13.9103C10.617 13.6876 10.3149 13.5625 10 13.5625H9.55469Z" fill="black"/>
</svg>
