<svg width="60" height="60" viewBox="0 0 60 60" fill="none" xmlns="http://www.w3.org/2000/svg">
<path fill-rule="evenodd" clip-rule="evenodd" d="M8.59835 10.4733C9.30161 9.77009 10.2554 9.375 11.25 9.375H48.75C49.7446 9.375 50.6984 9.77009 51.4017 10.4733C52.1049 11.1766 52.5 12.1304 52.5 13.125V26.8828C52.5 47.8566 34.693 54.798 31.2011 55.9589C30.4245 56.237 29.5755 56.237 28.7989 55.9589C25.307 54.798 7.5 47.8566 7.5 26.8828V13.125C7.5 12.1304 7.89509 11.1766 8.59835 10.4733ZM48.75 13.125L11.25 13.125L11.25 26.8828C11.25 45.2252 26.7651 51.335 30 52.4064C33.2349 51.335 48.75 45.2252 48.75 26.8828V13.125Z" fill="white"/>
<path fill-rule="evenodd" clip-rule="evenodd" d="M41.6692 23.0807C42.384 23.83 42.356 25.0169 41.6068 25.7317L27.8489 38.8567C27.1241 39.5482 25.9836 39.5477 25.2593 38.8556L18.3921 32.2931C17.6434 31.5776 17.6165 30.3907 18.3319 29.6421C19.0474 28.8934 20.2343 28.8665 20.9829 29.5819L26.5558 34.9076L39.0182 23.0183C39.7675 22.3035 40.9544 22.3315 41.6692 23.0807Z" fill="white"/>
</svg>
