<svg width="26" height="26" viewBox="0 0 26 26" fill="none" xmlns="http://www.w3.org/2000/svg">
<path fill-rule="evenodd" clip-rule="evenodd" d="M13.4063 4.0625C11.1436 4.0625 8.97367 4.96133 7.37375 6.56124C5.77383 8.16117 4.87501 10.3311 4.87501 12.5938V21.125H13.4063C14.5266 21.125 15.636 20.9043 16.671 20.4756C17.7061 20.0469 18.6466 19.4185 19.4388 18.6263C20.231 17.8341 20.8594 16.8936 21.2881 15.8585C21.7168 14.8235 21.9375 13.7141 21.9375 12.5938C21.9375 11.4734 21.7168 10.364 21.2881 9.32898C20.8594 8.29392 20.231 7.35345 19.4388 6.56124C18.6466 5.76905 17.7061 5.14064 16.671 4.7119C15.636 4.28317 14.5266 4.0625 13.4063 4.0625ZM13.4063 22.75H4.84896C4.63953 22.7519 4.43177 22.7123 4.23771 22.6334C4.04169 22.5538 3.86361 22.4356 3.71399 22.286C3.56437 22.1364 3.44624 21.9583 3.36656 21.7623C3.28768 21.5682 3.24807 21.3605 3.25001 21.151V12.5938C3.25001 9.90014 4.32004 7.31686 6.2247 5.4122C8.12937 3.50753 10.7127 2.4375 13.4063 2.4375C14.74 2.4375 16.0607 2.7002 17.2929 3.2106C18.5251 3.721 19.6447 4.4691 20.5878 5.4122C21.5309 6.35529 22.279 7.47491 22.7894 8.70712C23.2998 9.93933 23.5625 11.26 23.5625 12.5938C23.5625 13.9275 23.2998 15.2482 22.7894 16.4804C22.279 17.7126 21.5309 18.8322 20.5878 19.7753C19.6447 20.7184 18.5251 21.4665 17.2929 21.9769C16.0607 22.4873 14.74 22.75 13.4063 22.75Z" fill="#595959"/>
<path d="M13.4062 14.2188C14.0793 14.2188 14.625 13.6731 14.625 13C14.625 12.3269 14.0793 11.7812 13.4062 11.7812C12.7332 11.7812 12.1875 12.3269 12.1875 13C12.1875 13.6731 12.7332 14.2188 13.4062 14.2188Z" fill="#595959"/>
<path d="M8.53125 14.2188C9.20435 14.2188 9.75 13.6731 9.75 13C9.75 12.3269 9.20435 11.7812 8.53125 11.7812C7.85815 11.7812 7.3125 12.3269 7.3125 13C7.3125 13.6731 7.85815 14.2188 8.53125 14.2188Z" fill="#595959"/>
<path d="M18.2812 14.2188C18.9543 14.2188 19.5 13.6731 19.5 13C19.5 12.3269 18.9543 11.7812 18.2812 11.7812C17.6082 11.7812 17.0625 12.3269 17.0625 13C17.0625 13.6731 17.6082 14.2188 18.2812 14.2188Z" fill="#595959"/>
</svg>
