<svg width="20" height="20" viewBox="0 0 20 20" fill="none" xmlns="http://www.w3.org/2000/svg">
<path d="M7.63308 9.05837C7.54974 9.05004 7.44974 9.05004 7.35808 9.05837C5.37474 8.9917 3.79974 7.3667 3.79974 5.3667C3.79974 3.32504 5.44974 1.6667 7.49974 1.6667C9.54141 1.6667 11.1997 3.32504 11.1997 5.3667C11.1914 7.3667 9.61641 8.9917 7.63308 9.05837Z" stroke="#9197B3" stroke-width="1.5" stroke-linecap="round" stroke-linejoin="round"/>
<path d="M13.6737 3.3333C15.2904 3.3333 16.5904 4.64163 16.5904 6.24996C16.5904 7.82496 15.3404 9.1083 13.782 9.16663C13.7154 9.1583 13.6404 9.1583 13.5654 9.16663" stroke="#9197B3" stroke-width="1.5" stroke-linecap="round" stroke-linejoin="round"/>
<path d="M3.4674 12.1333C1.45073 13.4833 1.45073 15.6833 3.4674 17.025C5.75906 18.5583 9.5174 18.5583 11.8091 17.025C13.8257 15.675 13.8257 13.475 11.8091 12.1333C9.52573 10.6083 5.7674 10.6083 3.4674 12.1333Z" stroke="#9197B3" stroke-width="1.5" stroke-linecap="round" stroke-linejoin="round"/>
<path d="M15.2841 16.6667C15.8841 16.5417 16.4508 16.3 16.9175 15.9417C18.2175 14.9667 18.2175 13.3584 16.9175 12.3834C16.4591 12.0334 15.9008 11.8 15.3091 11.6667" stroke="#9197B3" stroke-width="1.5" stroke-linecap="round" stroke-linejoin="round"/>
</svg>
