<svg width="20" height="19" viewBox="0 0 20 19" fill="none" xmlns="http://www.w3.org/2000/svg">
<path fill-rule="evenodd" clip-rule="evenodd" d="M2.62906 3.31656C2.85176 3.09386 3.15381 2.96875 3.46875 2.96875H16.5312C16.8462 2.96875 17.1482 3.09386 17.3709 3.31656C17.5936 3.53926 17.7188 3.84131 17.7188 4.15625V16.0313C17.7188 16.237 17.6122 16.4281 17.4372 16.5363C17.2621 16.6445 17.0435 16.6543 16.8595 16.5623L14.75 15.5076L12.6405 16.5623C12.4734 16.6459 12.2766 16.6459 12.1095 16.5623L10 15.5076L7.89053 16.5623C7.72338 16.6459 7.52662 16.6459 7.35947 16.5623L5.25 15.5076L3.14053 16.5623C2.95648 16.6543 2.73789 16.6445 2.56285 16.5363C2.3878 16.4281 2.28125 16.237 2.28125 16.0313V4.15625C2.28125 3.84131 2.40636 3.53926 2.62906 3.31656ZM16.5312 4.15625L3.46875 4.15625L3.46875 15.0705L4.98447 14.3127C5.15162 14.2291 5.34838 14.2291 5.51553 14.3127L7.625 15.3674L9.73447 14.3127C9.90162 14.2291 10.0984 14.2291 10.2655 14.3127L12.375 15.3674L14.4845 14.3127C14.6516 14.2291 14.8484 14.2291 15.0155 14.3127L16.5312 15.0705V4.15625Z" fill="white"/>
<path fill-rule="evenodd" clip-rule="evenodd" d="M10.5938 8.3125C10.5938 7.98458 10.8596 7.71875 11.1875 7.71875H14.75C15.0779 7.71875 15.3438 7.98458 15.3438 8.3125C15.3438 8.64042 15.0779 8.90625 14.75 8.90625H11.1875C10.8596 8.90625 10.5938 8.64042 10.5938 8.3125Z" fill="white"/>
<path fill-rule="evenodd" clip-rule="evenodd" d="M10.5938 10.6875C10.5938 10.3596 10.8596 10.0938 11.1875 10.0938H14.75C15.0779 10.0938 15.3438 10.3596 15.3438 10.6875C15.3438 11.0154 15.0779 11.2812 14.75 11.2812H11.1875C10.8596 11.2812 10.5938 11.0154 10.5938 10.6875Z" fill="white"/>
<path fill-rule="evenodd" clip-rule="evenodd" d="M4.65625 7.125C4.65625 6.79708 4.92208 6.53125 5.25 6.53125H8.8125C9.14042 6.53125 9.40625 6.79708 9.40625 7.125V11.875C9.40625 12.2029 9.14042 12.4688 8.8125 12.4688H5.25C4.92208 12.4688 4.65625 12.2029 4.65625 11.875V7.125ZM5.84375 7.71875V11.2812H8.21875V7.71875H5.84375Z" fill="white"/>
</svg>
