<svg width="19" height="19" viewBox="0 0 19 19" fill="none" xmlns="http://www.w3.org/2000/svg">
<path fill-rule="evenodd" clip-rule="evenodd" d="M4.15625 4.15625C3.99878 4.15625 3.84775 4.21881 3.73641 4.33016C3.62506 4.4415 3.5625 4.59253 3.5625 4.75C3.5625 4.90747 3.62506 5.05849 3.73641 5.16984C3.84776 5.28119 3.99878 5.34375 4.15625 5.34375H16.0312C16.3462 5.34375 16.6482 5.46886 16.8709 5.69156C17.0936 5.91426 17.2188 6.21631 17.2188 6.53125V14.8438C17.2188 15.1587 17.0936 15.4607 16.8709 15.6834C16.6482 15.9061 16.3462 16.0312 16.0312 16.0312H4.15625C3.68383 16.0312 3.23076 15.8436 2.89672 15.5095C2.56267 15.1755 2.375 14.7224 2.375 14.25V4.75C2.375 4.27758 2.56267 3.82452 2.89672 3.49047C3.23077 3.15642 3.68383 2.96875 4.15625 2.96875H14.25C14.5779 2.96875 14.8438 3.23458 14.8438 3.5625C14.8438 3.89042 14.5779 4.15625 14.25 4.15625H4.15625ZM3.5625 6.42938V14.25C3.5625 14.4075 3.62506 14.5585 3.73641 14.6698C3.84776 14.7812 3.99878 14.8438 4.15625 14.8438H16.0312V6.53125H4.15625C3.95203 6.53125 3.75143 6.49618 3.5625 6.42938Z" fill="#595959"/>
<path d="M13.3594 11.5781C13.8513 11.5781 14.25 11.1794 14.25 10.6875C14.25 10.1956 13.8513 9.79688 13.3594 9.79688C12.8675 9.79688 12.4688 10.1956 12.4688 10.6875C12.4688 11.1794 12.8675 11.5781 13.3594 11.5781Z" fill="#595959"/>
</svg>
