<svg width="19" height="19" viewBox="0 0 19 19" fill="none" xmlns="http://www.w3.org/2000/svg">
<path fill-rule="evenodd" clip-rule="evenodd" d="M2.375 3.5625C2.375 2.90666 2.90666 2.375 3.5625 2.375H15.4375C16.0933 2.375 16.625 2.90666 16.625 3.5625V15.4375C16.625 16.0933 16.0933 16.625 15.4375 16.625H3.5625C2.90666 16.625 2.375 16.0933 2.375 15.4375V3.5625ZM15.4375 3.5625H3.5625V15.4375H15.4375V3.5625Z" fill="#595959"/>
<path fill-rule="evenodd" clip-rule="evenodd" d="M13.0625 1.1875C13.3904 1.1875 13.6562 1.45333 13.6562 1.78125V4.15625C13.6562 4.48417 13.3904 4.75 13.0625 4.75C12.7346 4.75 12.4688 4.48417 12.4688 4.15625V1.78125C12.4688 1.45333 12.7346 1.1875 13.0625 1.1875Z" fill="#595959"/>
<path fill-rule="evenodd" clip-rule="evenodd" d="M5.9375 1.1875C6.26542 1.1875 6.53125 1.45333 6.53125 1.78125V4.15625C6.53125 4.48417 6.26542 4.75 5.9375 4.75C5.60958 4.75 5.34375 4.48417 5.34375 4.15625V1.78125C5.34375 1.45333 5.60958 1.1875 5.9375 1.1875Z" fill="#595959"/>
<path fill-rule="evenodd" clip-rule="evenodd" d="M2.375 6.53125C2.375 6.20333 2.64083 5.9375 2.96875 5.9375H16.0312C16.3592 5.9375 16.625 6.20333 16.625 6.53125C16.625 6.85917 16.3592 7.125 16.0312 7.125H2.96875C2.64083 7.125 2.375 6.85917 2.375 6.53125Z" fill="#595959"/>
<path fill-rule="evenodd" clip-rule="evenodd" d="M6.23438 9.5C6.23438 9.17208 6.50021 8.90625 6.82812 8.90625H8.90625C9.13449 8.90625 9.34253 9.03708 9.4414 9.24279C9.54027 9.44851 9.51247 9.69269 9.36989 9.87091L8.71272 10.6924C8.90526 10.8215 9.07125 10.9872 9.20087 11.1808C9.36397 11.4244 9.46443 11.7045 9.49335 11.9962C9.52226 12.2879 9.47873 12.5823 9.36661 12.8531C9.2545 13.124 9.07727 13.363 8.85064 13.5489C8.62401 13.7349 8.35499 13.862 8.06745 13.9191C7.77991 13.9761 7.48273 13.9613 7.20227 13.876C6.92182 13.7907 6.66676 13.6374 6.45973 13.4299C6.22813 13.1977 6.22859 12.8218 6.46074 12.5902C6.6929 12.3586 7.06884 12.3591 7.30043 12.5912C7.36944 12.6604 7.45446 12.7115 7.54795 12.7399C7.64143 12.7684 7.74049 12.7733 7.83634 12.7543C7.93219 12.7353 8.02186 12.6929 8.0974 12.6309C8.17294 12.5689 8.23202 12.4892 8.26939 12.399C8.30676 12.3087 8.32127 12.2106 8.31164 12.1133C8.302 12.0161 8.26851 11.9227 8.21414 11.8415C8.15978 11.7603 8.08621 11.6938 7.99997 11.6479C7.91373 11.6019 7.81748 11.578 7.71977 11.5781C7.49134 11.5785 7.28295 11.4478 7.18382 11.242C7.08469 11.0362 7.11241 10.7918 7.25511 10.6135L7.67088 10.0938H6.82812C6.50021 10.0938 6.23438 9.82792 6.23438 9.5Z" fill="#595959"/>
<path fill-rule="evenodd" clip-rule="evenodd" d="M12.1406 8.96894C12.3417 9.06951 12.4688 9.27511 12.4688 9.5V13.3594C12.4688 13.6873 12.203 13.9531 11.875 13.9531C11.5471 13.9531 11.2813 13.6873 11.2813 13.3594V10.6875L11.0438 10.8656C10.7814 11.0624 10.4093 11.0092 10.2125 10.7469C10.0158 10.4845 10.0689 10.1124 10.3313 9.91563L11.5188 9.025C11.6987 8.89007 11.9394 8.86836 12.1406 8.96894Z" fill="#595959"/>
</svg>
