<svg width="19" height="19" viewBox="0 0 19 19" fill="none" xmlns="http://www.w3.org/2000/svg">
<path fill-rule="evenodd" clip-rule="evenodd" d="M6.53125 3.5625C5.74389 3.5625 4.98878 3.87528 4.43203 4.43203C3.87528 4.98878 3.5625 5.74389 3.5625 6.53125V12.4688C3.5625 13.2561 3.87528 14.0112 4.43203 14.568C4.98878 15.1247 5.74389 15.4375 6.53125 15.4375H9.99076C10.3372 15.3045 10.8003 15.0282 11.3332 14.6285C11.9005 14.203 12.5103 13.6657 13.088 13.088C13.6657 12.5103 14.203 11.9005 14.6285 11.3332C15.0282 10.8003 15.3045 10.3372 15.4375 9.99076V6.53125C15.4375 5.74389 15.1247 4.98878 14.568 4.43203C14.0112 3.87528 13.2561 3.5625 12.4688 3.5625H6.53125ZM3.59234 3.59234C4.37179 2.81289 5.42894 2.375 6.53125 2.375H12.4688C13.5711 2.375 14.6282 2.81289 15.4077 3.59234C16.1871 4.37179 16.625 5.42894 16.625 6.53125V10.0938C16.625 10.1576 16.6147 10.221 16.5945 10.2815C16.4156 10.8183 16.0359 11.4359 15.5785 12.0457C15.1134 12.6659 14.5374 13.3179 13.9277 13.9277C13.3179 14.5374 12.6659 15.1134 12.0457 15.5785C11.4359 16.0359 10.8183 16.4156 10.2815 16.5945C10.221 16.6147 10.1576 16.625 10.0938 16.625H6.53125C5.42894 16.625 4.37179 16.1871 3.59234 15.4077C2.81289 14.6282 2.375 13.5711 2.375 12.4688V6.53125C2.375 5.42894 2.81289 4.37179 3.59234 3.59234Z" fill="#595959"/>
<path fill-rule="evenodd" clip-rule="evenodd" d="M13.6562 10.6875C12.8689 10.6875 12.1138 11.0003 11.557 11.557C11.0003 12.1138 10.6875 12.8689 10.6875 13.6562V16.0312C10.6875 16.3592 10.4217 16.625 10.0938 16.625C9.76583 16.625 9.5 16.3592 9.5 16.0312V13.6562C9.5 12.5539 9.93789 11.4968 10.7173 10.7173C11.4968 9.93789 12.5539 9.5 13.6562 9.5H16.0312C16.3592 9.5 16.625 9.76583 16.625 10.0938C16.625 10.4217 16.3592 10.6875 16.0312 10.6875H13.6562Z" fill="#595959"/>
</svg>
