<svg width="24" height="24" viewBox="0 0 24 24" fill="none" xmlns="http://www.w3.org/2000/svg">
<path fill-rule="evenodd" clip-rule="evenodd" d="M8.25 21C8.25 20.5858 8.58579 20.25 9 20.25H15C15.4142 20.25 15.75 20.5858 15.75 21C15.75 21.4142 15.4142 21.75 15 21.75H9C8.58579 21.75 8.25 21.4142 8.25 21Z" fill="black"/>
<path fill-rule="evenodd" clip-rule="evenodd" d="M12 4.51874C11.2145 4.51874 10.4368 4.67345 9.71107 4.97403C8.98539 5.27462 8.32603 5.71519 7.77062 6.27061C7.21521 6.82602 6.77463 7.48538 6.47404 8.21106C6.17346 8.93674 6.01875 9.71452 6.01875 10.5C6.01875 13.9617 5.29291 16.0466 4.59639 17.25H19.4036C18.7071 16.0466 17.9812 13.9617 17.9812 10.5C17.9812 9.71452 17.8265 8.93674 17.526 8.21106C17.2254 7.48538 16.7848 6.82602 16.2294 6.27061C15.674 5.71519 15.0146 5.27462 14.2889 4.97403C13.5632 4.67345 12.7855 4.51874 12 4.51874ZM9.13705 3.58821C10.0447 3.21225 11.0175 3.01874 12 3.01874C12.9824 3.01874 13.9553 3.21225 14.8629 3.58821C15.7706 3.96418 16.5953 4.51525 17.29 5.20994C17.9847 5.90464 18.5358 6.72937 18.9118 7.63704C19.2877 8.5447 19.4812 9.51754 19.4812 10.5C19.4812 13.75 20.1613 15.565 20.7022 16.4992L20.7026 16.5C20.8341 16.7276 20.9034 16.9858 20.9036 17.2487C20.9038 17.5115 20.835 17.7698 20.704 17.9977C20.5729 18.2256 20.3843 18.415 20.157 18.547C19.9297 18.6791 19.6717 18.7491 19.4089 18.75L19.4062 18.75H4.59375L4.59111 18.75C4.32825 18.7491 4.07025 18.6791 3.84296 18.547C3.61566 18.415 3.42706 18.2256 3.29603 17.9977C3.165 17.7698 3.09616 17.5115 3.09639 17.2487C3.09662 16.9858 3.16593 16.7276 3.29736 16.5L3.2978 16.4992C3.83864 15.565 4.51875 13.75 4.51875 10.5C4.51875 9.51754 4.71226 8.5447 5.08822 7.63704C5.46419 6.72937 6.01526 5.90464 6.70996 5.20994C7.40465 4.51525 8.22938 3.96418 9.13705 3.58821Z" fill="black"/>
</svg>
